<?xml version="1.0" encoding="utf-8"?>
<svg height="118" width="210" version="1.1" xmlns="http://www.w3.org/2000/svg" xmlns:xlink="http://www.w3.org/1999/xlink" x="0px" y="0px" viewBox="10 288 980 424" enable-background="new 0 0 1000 1000" xml:space="preserve"><style type="text/css">path{fill:#109CD9;}</style><g><g><g><path d="M422,396.4l-124.4,70.2c-3.6,2-5.9,5.6-6.2,9.7c-0.3,4.1,1.4,8,4.7,10.6l124.4,97.6c2.2,1.7,4.9,2.6,7.5,2.6c3.6,0,7.2-1.6,9.6-4.7c4.2-5.3,3.2-13-2.1-17.1l-95.3-74.7c-8.2-6.4-7.5-15.7,1.6-20.8l92.1-52c5.9-3.3,8-10.7,4.7-16.6C435.3,395.1,427.8,393.1,422,396.4z"/><path d="M578,396.4c-5.8-3.3-13.3-1.3-16.6,4.6c-3.3,5.9-1.2,13.3,4.6,16.6l92.2,52c9,5.1,9.8,14.4,1.6,20.8l-95.3,74.7c-5.3,4.2-6.2,11.8-2,17.1c2.4,3.1,6,4.7,9.6,4.7c2.7,0,5.3-0.9,7.6-2.6L704,486.8c3.2-2.5,4.9-6.5,4.7-10.6c-0.3-4.1-2.7-7.7-6.2-9.7L578,396.4z"/><path d="M531.6,337.1c-6.7-1.3-13,3.1-14.3,9.7l-57.9,302c-1.3,6.6,3.1,13,9.7,14.3c0.8,0.2,1.5,0.2,2.3,0.2c5.7,0,10.9-4.1,12-9.9l58-302C542.6,344.7,538.2,338.3,531.6,337.1z"/><path d="M938.3,229.2H61.7c-28.5,0-51.7,23.2-51.7,51.7v438.3c0,28.5,23.2,51.7,51.7,51.7h876.7c28.5,0,51.7-23.2,51.7-51.7V280.8C990,252.4,966.8,229.2,938.3,229.2z M961.8,719.2c0,12.9-10.5,23.5-23.5,23.5H61.7c-12.9,0-23.5-10.5-23.5-23.5V280.8c0-12.9,10.5-23.5,23.5-23.5h876.7c12.9,0,23.5,10.5,23.5,23.5V719.2z"/></g></g><g></g><g></g><g></g><g></g><g></g><g></g><g></g><g></g><g></g><g></g><g></g><g></g><g></g><g></g><g></g></g></svg>